<?xml version="1.0" encoding="UTF-8"?>
<svg width="700pt" height="700pt" version="1.1" viewBox="0 0 700 700" xmlns="http://www.w3.org/2000/svg"
    xmlns:xlink="http://www.w3.org/1999/xlink">
    <defs>
        <symbol id="l" overflow="visible">
            <path
                d="m29.312-1.75c-1.5117 0.78125-3.0898 1.3711-4.7344 1.7656-1.6367 0.40625-3.3398 0.60938-5.1094 0.60938-5.3125 0-9.5273-1.4844-12.641-4.4531-3.1055-2.9688-4.6562-7-4.6562-12.094s1.5508-9.125 4.6562-12.094c3.1133-2.9688 7.3281-4.4531 12.641-4.4531 1.7695 0 3.4727 0.19922 5.1094 0.59375 1.6445 0.39844 3.2227 0.99219 4.7344 1.7812v6.5938c-1.5312-1.0391-3.0391-1.8008-4.5156-2.2812-1.4805-0.48828-3.0391-0.73438-4.6719-0.73438-2.9375 0-5.2461 0.94531-6.9219 2.8281-1.6797 1.875-2.5156 4.4648-2.5156 7.7656 0 3.293 0.83594 5.8828 2.5156 7.7656 1.6758 1.875 3.9844 2.8125 6.9219 2.8125 1.6328 0 3.1914-0.23828 4.6719-0.71875 1.4766-0.48828 2.9844-1.2539 4.5156-2.2969z" />
        </symbol>
        <symbol id="d" overflow="visible">
            <path
                d="m21.453-17.406c-0.67969-0.3125-1.3516-0.53906-2.0156-0.6875-0.65625-0.15625-1.3203-0.23438-1.9844-0.23438-1.9688 0-3.4844 0.63281-4.5469 1.8906-1.0547 1.2617-1.5781 3.0703-1.5781 5.4219v11.016h-7.6562v-23.922h7.6562v3.9219c0.97656-1.5625 2.1016-2.7031 3.375-3.4219 1.2812-0.71875 2.8125-1.0781 4.5938-1.0781 0.25 0 0.52344 0.011719 0.82812 0.03125 0.30078 0.023438 0.73438 0.070312 1.2969 0.14062z" />
        </symbol>
        <symbol id="c" overflow="visible">
            <path
                d="m27.562-12.031v2.1875h-17.891c0.1875 1.793 0.83203 3.1367 1.9375 4.0312 1.1133 0.89844 2.6719 1.3438 4.6719 1.3438 1.6016 0 3.25-0.23438 4.9375-0.70312 1.6875-0.47656 3.4219-1.2031 5.2031-2.1719v5.8906c-1.8047 0.6875-3.6094 1.2031-5.4219 1.5469-1.8125 0.35156-3.6211 0.53125-5.4219 0.53125-4.3359 0-7.7031-1.0977-10.109-3.2969-2.3984-2.207-3.5938-5.2969-3.5938-9.2656 0-3.9062 1.1758-6.9727 3.5312-9.2031 2.3633-2.2383 5.6094-3.3594 9.7344-3.3594 3.7578 0 6.7695 1.1367 9.0312 3.4062 2.2578 2.2617 3.3906 5.2812 3.3906 9.0625zm-7.8594-2.5312c0-1.457-0.42969-2.6289-1.2812-3.5156-0.84375-0.89453-1.9492-1.3438-3.3125-1.3438-1.4922 0-2.6992 0.41797-3.625 1.25-0.91797 0.83594-1.4922 2.0391-1.7188 3.6094z" />
        </symbol>
        <symbol id="a" overflow="visible">
            <path
                d="m14.391-10.766c-1.5938 0-2.793 0.27344-3.5938 0.8125-0.80469 0.54297-1.2031 1.3398-1.2031 2.3906 0 0.96875 0.32031 1.7305 0.96875 2.2812 0.64453 0.54297 1.5469 0.8125 2.7031 0.8125 1.4375 0 2.6445-0.51562 3.625-1.5469 0.98828-1.0312 1.4844-2.3203 1.4844-3.875v-0.875zm11.688-2.8906v13.656h-7.7031v-3.5469c-1.0312 1.4492-2.1875 2.5078-3.4688 3.1719s-2.8398 1-4.6719 1c-2.4805 0-4.4961-0.72266-6.0469-2.1719-1.543-1.4453-2.3125-3.3203-2.3125-5.625 0-2.8125 0.96094-4.8672 2.8906-6.1719 1.9375-1.3125 4.9688-1.9688 9.0938-1.9688h4.5156v-0.60938c0-1.207-0.48047-2.0938-1.4375-2.6562-0.94922-0.5625-2.4375-0.84375-4.4688-0.84375-1.6367 0-3.1562 0.16797-4.5625 0.5-1.4062 0.32422-2.7188 0.8125-3.9375 1.4688v-5.8281c1.6445-0.40625 3.2891-0.70703 4.9375-0.90625 1.6562-0.20703 3.3047-0.3125 4.9531-0.3125 4.3203 0 7.4375 0.85547 9.3438 2.5625 1.9141 1.6992 2.875 4.4609 2.875 8.2812z" />
        </symbol>
        <symbol id="b" overflow="visible">
            <path
                d="m12.031-30.719v6.7969h7.875v5.4688h-7.875v10.141c0 1.1172 0.21875 1.8711 0.65625 2.2656 0.4375 0.38672 1.3125 0.57812 2.625 0.57812h3.9375v5.4688h-6.5625c-3.0234 0-5.1641-0.62891-6.4219-1.8906-1.2617-1.2578-1.8906-3.3984-1.8906-6.4219v-10.141h-3.7969v-5.4688h3.7969v-6.7969z" />
        </symbol>
        <symbol id="i" overflow="visible">
            <path
                d="m19.953-20.422v-12.812h7.6875v33.234h-7.6875v-3.4531c-1.0547 1.4062-2.2148 2.4375-3.4844 3.0938-1.2734 0.65625-2.7422 0.98438-4.4062 0.98438-2.9492 0-5.3711-1.1719-7.2656-3.5156-1.8867-2.3438-2.8281-5.3594-2.8281-9.0469s0.94141-6.7031 2.8281-9.0469c1.8945-2.3438 4.3164-3.5156 7.2656-3.5156 1.6562 0 3.1172 0.33594 4.3906 1 1.2812 0.65625 2.4453 1.6836 3.5 3.0781zm-5.0469 15.484c1.6445 0 2.8945-0.59766 3.75-1.7969 0.86328-1.1953 1.2969-2.9297 1.2969-5.2031 0-2.2812-0.43359-4.0195-1.2969-5.2188-0.85547-1.1953-2.1055-1.7969-3.75-1.7969-1.625 0-2.8711 0.60156-3.7344 1.7969-0.85547 1.1992-1.2812 2.9375-1.2812 5.2188 0 2.2734 0.42578 4.0078 1.2812 5.2031 0.86328 1.1992 2.1094 1.7969 3.7344 1.7969z" />
        </symbol>
        <symbol id="h" overflow="visible">
            <path
                d="m16.406-4.9375c1.6328 0 2.8828-0.59766 3.75-1.7969 0.86328-1.1953 1.2969-2.9297 1.2969-5.2031 0-2.2812-0.43359-4.0195-1.2969-5.2188-0.86719-1.1953-2.1172-1.7969-3.75-1.7969-1.6367 0-2.8906 0.60547-3.7656 1.8125-0.875 1.1992-1.3125 2.9336-1.3125 5.2031 0 2.2617 0.4375 3.9961 1.3125 5.2031 0.875 1.1992 2.1289 1.7969 3.7656 1.7969zm-5.0781-15.484c1.0508-1.3945 2.2188-2.4219 3.5-3.0781 1.2812-0.66406 2.7539-1 4.4219-1 2.9453 0 5.3672 1.1719 7.2656 3.5156 1.8945 2.3438 2.8438 5.3594 2.8438 9.0469s-0.94922 6.7031-2.8438 9.0469c-1.8984 2.3438-4.3203 3.5156-7.2656 3.5156-1.668 0-3.1406-0.33594-4.4219-1s-2.4492-1.6914-3.5-3.0781v3.4531h-7.6562v-33.234h7.6562z" />
        </symbol>
        <symbol id="g" overflow="visible">
            <path
                d="m0.53125-23.922h7.6562l6.4219 16.234 5.4688-16.234h7.6562l-10.062 26.188c-1.0117 2.6641-2.1953 4.5234-3.5469 5.5781-1.3438 1.0625-3.1211 1.5938-5.3281 1.5938h-4.4219v-5.0156h2.3906c1.3008 0 2.2422-0.21094 2.8281-0.625 0.59375-0.40625 1.0547-1.1484 1.3906-2.2188l0.20312-0.65625z" />
        </symbol>
        <symbol id="f" overflow="visible">
            <path d="m3.6719-33.234h7.6562v33.234h-7.6562z" />
        </symbol>
        <symbol id="e" overflow="visible">
            <path
                d="m22.359-23.172v5.7969c-1.6367-0.67578-3.2148-1.1875-4.7344-1.5312-1.5234-0.34375-2.9609-0.51562-4.3125-0.51562-1.4609 0-2.543 0.18359-3.25 0.54688-0.69922 0.36719-1.0469 0.92188-1.0469 1.6719 0 0.61719 0.26562 1.0898 0.79688 1.4219 0.53125 0.32422 1.4883 0.5625 2.875 0.71875l1.3438 0.1875c3.9141 0.5 6.5508 1.3242 7.9062 2.4688 1.3516 1.1367 2.0312 2.9219 2.0312 5.3594 0 2.5547-0.94531 4.4688-2.8281 5.75-1.875 1.2812-4.6797 1.9219-8.4062 1.9219-1.5859 0-3.2188-0.125-4.9062-0.375s-3.4219-0.625-5.2031-1.125v-5.8125c1.5195 0.74219 3.082 1.2969 4.6875 1.6719 1.6016 0.36719 3.2344 0.54688 4.8906 0.54688 1.4883 0 2.6094-0.20312 3.3594-0.60938 0.75781-0.41406 1.1406-1.0312 1.1406-1.8438 0-0.6875-0.26172-1.1953-0.78125-1.5312-0.52344-0.33203-1.5586-0.59375-3.1094-0.78125l-1.3438-0.17188c-3.4062-0.42578-5.793-1.2109-7.1562-2.3594-1.3672-1.1562-2.0469-2.9102-2.0469-5.2656 0-2.5312 0.86719-4.4062 2.6094-5.625 1.7383-1.2266 4.3984-1.8438 7.9844-1.8438 1.4062 0 2.8828 0.10938 4.4375 0.32812 1.5508 0.21094 3.2383 0.54297 5.0625 1z" />
        </symbol>
        <symbol id="k" overflow="visible">
            <path
                d="m11.328-3.4531v12.547h-7.6562v-33.016h7.6562v3.5c1.0508-1.3945 2.2188-2.4219 3.5-3.0781 1.2812-0.66406 2.7539-1 4.4219-1 2.9453 0 5.3672 1.1719 7.2656 3.5156 1.8945 2.3438 2.8438 5.3594 2.8438 9.0469s-0.94922 6.7031-2.8438 9.0469c-1.8984 2.3438-4.3203 3.5156-7.2656 3.5156-1.668 0-3.1406-0.33594-4.4219-1s-2.4492-1.6914-3.5-3.0781zm5.0781-15.5c-1.6367 0-2.8906 0.60547-3.7656 1.8125-0.875 1.1992-1.3125 2.9336-1.3125 5.2031 0 2.2617 0.4375 3.9961 1.3125 5.2031 0.875 1.1992 2.1289 1.7969 3.7656 1.7969 1.6328 0 2.8828-0.59766 3.75-1.7969 0.86328-1.1953 1.2969-2.9297 1.2969-5.2031 0-2.2812-0.43359-4.0195-1.2969-5.2188-0.86719-1.1953-2.1172-1.7969-3.75-1.7969z" />
        </symbol>
        <symbol id="j" overflow="visible">
            <path
                d="m3.6719-33.234h7.6562v18.094l8.7969-8.7812h8.8906l-11.688 10.969 12.594 12.953h-9.2656l-9.3281-9.9688v9.9688h-7.6562z" />
        </symbol>
    </defs>
    <g>
        <path
            d="m210 306.25c-29.664 0-58.012-12.246-78.34-33.848-20.332-21.598-30.84-50.637-29.043-80.242l11.148-183.94c0.28516-4.6133 4.1094-8.2148 8.7344-8.2188l175 0.0078125c4.625 0 8.4531 3.6016 8.7344 8.2227l11.152 183.94h-0.003907c1.793 29.605-8.7148 58.641-29.047 80.238-20.328 21.598-48.676 33.844-78.336 33.844zm-79.262-288.75-10.656 175.72c-1.5039 24.793 7.2969 49.105 24.324 67.191 17.023 18.086 40.758 28.34 65.598 28.34 24.836 0 48.574-10.258 65.594-28.344 17.113-18.027 25.93-42.375 24.32-67.18l-10.656-175.72z" />
        <path
            d="m210 280c-22.43-0.007812-43.859-9.2695-59.227-25.605-15.371-16.332-23.316-38.285-21.957-60.672l7-115.5-0.003906-0.003906c0.28516-4.6133 4.1094-8.2148 8.7344-8.2188h130.91c4.625 0.003906 8.4492 3.6055 8.7344 8.2188l7 115.5-0.003906 0.003906c1.3633 22.387-6.582 44.344-21.953 60.676-15.367 16.336-36.801 25.598-59.23 25.602zm-57.215-192.5-6.5039 107.28c-1.0703 17.57 5.1641 34.805 17.23 47.625 12.062 12.816 28.887 20.086 46.488 20.086s34.426-7.2695 46.488-20.086c12.066-12.82 18.301-30.055 17.23-47.625l-6.5039-107.28z" />
        <path
            d="m210 405.65c-2.3203 0.003906-4.5469-0.91797-6.1875-2.5625-1.6406-1.6406-2.5625-3.8672-2.5625-6.1875v-99.402c0-4.832 3.918-8.75 8.75-8.75s8.75 3.918 8.75 8.75v99.402c0 2.3203-0.92188 4.5469-2.5625 6.1875-1.6406 1.6445-3.8672 2.5664-6.1875 2.5625z" />
        <path
            d="m600.3 516.25h-500.61c-7.875-0.007812-15.422-3.1406-20.988-8.707-5.5664-5.5664-8.6992-13.113-8.707-20.988v-5.3047c0-2.3203 0.92188-4.5469 2.5625-6.1875s3.8672-2.5625 6.1875-2.5625h542.5c2.3203 0 4.5469 0.92188 6.1875 2.5625s2.5625 3.8672 2.5625 6.1875v5.3047c-0.007812 7.875-3.1406 15.422-8.707 20.988-5.5664 5.5664-13.113 8.6992-20.988 8.707zm-512.31-26.25c1.5312 5.1836 6.293 8.7422 11.699 8.75h500.61-0.003906c5.4062-0.007812 10.168-3.5664 11.699-8.75z" />
        <path
            d="m556.41 560h-412.82c-10.719-0.03125-20.648-5.6523-26.191-14.824l-19.902-33.172c-2.4844-4.1445-1.1445-9.5195 3-12.008 4.1445-2.4844 9.5195-1.1445 12.008 3l19.902 33.172h-0.003906c2.3672 3.918 6.6094 6.3203 11.188 6.332h412.82c4.5781-0.011719 8.8203-2.4141 11.188-6.332l19.902-33.172h-0.003906c2.4883-4.1445 7.8633-5.4844 12.008-3 4.1445 2.4883 5.4844 7.8633 3 12.008l-19.902 33.172c-5.543 9.1758-15.473 14.793-26.191 14.824z" />
        <path
            d="m113.75 490c-2.3203 0-4.5469-0.92188-6.1875-2.5625s-2.5625-3.8672-2.5625-6.1875v-26.688c0-4.832 3.918-8.75 8.75-8.75s8.75 3.918 8.75 8.75v26.688c0 2.3203-0.92188 4.5469-2.5625 6.1875s-3.8672 2.5625-6.1875 2.5625z" />
        <path
            d="m236.25 490c-2.3203 0-4.5469-0.92188-6.1875-2.5625s-2.5625-3.8672-2.5625-6.1875v-71.676l-105-22.496v24.609c0 4.832-3.918 8.75-8.75 8.75s-8.75-3.918-8.75-8.75v-35.438c0-2.6406 1.1953-5.1406 3.2461-6.8008 2.0508-1.6797 4.7539-2.3242 7.3398-1.7539l122.5 26.25c4.0352 0.86328 6.918 4.4297 6.9141 8.5547v78.75c0 2.3203-0.92188 4.5469-2.5625 6.1875s-3.8672 2.5625-6.1875 2.5625z" />
        <path
            d="m118.12 463.75c-2.0117-0.007812-4.0234-0.20703-6-0.58984-4.7461-0.89453-7.8672-5.4727-6.9727-10.219 0.89844-4.75 5.4727-7.8711 10.223-6.9727 0.90625 0.17578 1.8281 0.26953 2.75 0.28125 7.25 0 13.125-5.875 13.125-13.125s-5.875-13.125-13.125-13.125c-0.92188 0.011719-1.8438 0.10547-2.75 0.28125-4.75 0.89844-9.3242-2.2227-10.223-6.9727-0.89453-4.7461 2.2266-9.3242 6.9727-10.219 1.9766-0.38281 3.9883-0.58203 6-0.58984 10.941 0 21.051 5.8359 26.523 15.312 5.4688 9.4766 5.4688 21.148 0 30.625-5.4727 9.4766-15.582 15.312-26.523 15.312z" />
        <path
            d="m183.75 463.75c-6.9609 0-13.641-2.7656-18.562-7.6875s-7.6875-11.602-7.6875-18.562 2.7656-13.641 7.6875-18.562 11.602-7.6875 18.562-7.6875 13.641 2.7656 18.562 7.6875 7.6875 11.602 7.6875 18.562c-0.007812 6.9609-2.7773 13.633-7.6953 18.555-4.9219 4.918-11.594 7.6875-18.555 7.6953zm0-35c-3.5391 0-6.7305 2.1328-8.082 5.4023-1.3555 3.2695-0.60938 7.0312 1.8945 9.5352s6.2656 3.25 9.5352 1.8945c3.2695-1.3516 5.4023-4.543 5.4023-8.082-0.003906-4.832-3.918-8.7461-8.75-8.75z" />
        <path
            d="m175 398.12c-2.3203 0-4.5469-0.92188-6.1875-2.5625s-2.5625-3.8672-2.5625-6.1875v-65.625c0-4.832 3.918-8.75 8.75-8.75s8.75 3.918 8.75 8.75v65.625c0 2.3203-0.92188 4.5469-2.5625 6.1875s-3.8672 2.5625-6.1875 2.5625z" />
        <path
            d="m516.24 490.02c-0.42578 0.003906-0.85156-0.027344-1.2734-0.09375-2.2969-0.33203-4.3672-1.5664-5.75-3.4258-1.3867-1.8633-1.9766-4.1992-1.6406-6.4922l52.5-358.75c0.625-4.3008 4.3125-7.4883 8.6562-7.4883s8.0273 3.1875 8.6562 7.4883l32.023 218.92c0.65625 4.7617-2.6484 9.1602-7.3984 9.8516-4.7539 0.69531-9.1797-2.5742-9.9102-7.3203l-23.371-159.75-43.844 299.57c-0.625 4.2969-4.3086 7.4844-8.6484 7.4844z" />
        <path
            d="m621.22 490.02c-4.3398 0-8.0195-3.1875-8.6445-7.4844l-12.859-87.938-0.003906 0.003906c-0.69531-4.7812 2.6133-9.2227 7.3945-9.9219s9.2227 2.6094 9.918 7.3906l12.859 87.938h0.003906c0.33594 2.293-0.25781 4.6289-1.6406 6.4922-1.3867 1.8594-3.457 3.0938-5.7539 3.4258-0.41797 0.066406-0.84375 0.097656-1.2734 0.09375z" />
        <path
            d="m366.54 405.39c-2.6133 0.003906-5.0938-1.1641-6.7578-3.1836-1.6641-2.0156-2.3398-4.6719-1.8398-7.2383l38.152-195.47 0.003906-0.003907c0.92578-4.7422 5.5195-7.8359 10.262-6.9102 4.7422 0.92578 7.8359 5.5195 6.9102 10.262l-38.152 195.47c-0.80078 4.1055-4.3945 7.0703-8.5781 7.0742z" />
        <path
            d="m568.73 131.27h-35.617c-4.832 0-8.75-3.9141-8.75-8.75 0-4.832 3.918-8.75 8.75-8.75h35.617c4.832 0 8.75 3.918 8.75 8.75 0 4.8359-3.918 8.75-8.75 8.75z" />
        <path
            d="m412.99 167.14c-2.6133 0.003906-5.0938-1.1641-6.7578-3.1836-1.6641-2.0156-2.3359-4.6719-1.8359-7.2383l7-35.871h-0.003907c0.80078-4.1094 4.4023-7.0781 8.5898-7.0781h70.266-0.003906c4.8359 0 8.75 3.918 8.75 8.75s-3.9141 8.75-8.75 8.75h-63.051l-5.6211 28.797c-0.80078 4.1055-4.3984 7.0742-8.582 7.0742z" />
        <path
            d="m603.73 402.52c-12.035 0.003906-23.223-6.1758-29.629-16.363s-7.1328-22.949-1.918-33.793c5.2148-10.848 15.633-18.254 27.59-19.609 4.7969-0.54297 9.1289 2.9062 9.6719 7.707 0.54297 4.7969-2.9062 9.1289-7.707 9.6719-5.9766 0.68359-11.184 4.3906-13.785 9.8125-2.6055 5.4219-2.2383 11.805 0.96484 16.895 3.2031 5.0898 8.7969 8.1797 14.812 8.1797 1.0586-0.011719 2.1172-0.11719 3.1602-0.30469 4.7578-0.80859 9.2695 2.3906 10.086 7.1445 0.81641 4.7578-2.375 9.2734-7.1289 10.098-2.0195 0.36328-4.0664 0.55078-6.1172 0.5625z" />
        <path
            d="m498.73 262.52c-9.2852 0-18.188-3.6875-24.75-10.25s-10.25-15.465-10.25-24.75c0-9.2812 3.6875-18.184 10.25-24.746 6.5625-6.5664 15.465-10.254 24.75-10.254 9.2812 0 18.184 3.6875 24.746 10.254 6.5664 6.5625 10.254 15.465 10.254 24.746-0.011719 9.2812-3.6992 18.18-10.262 24.742-6.5625 6.5586-15.461 10.25-24.738 10.258zm0-52.5c-4.6445 0-9.0938 1.8438-12.375 5.1289-3.2812 3.2812-5.125 7.7305-5.125 12.371 0 4.6445 1.8438 9.0938 5.125 12.375s7.7305 5.125 12.375 5.125c4.6406 0 9.0898-1.8438 12.371-5.125 3.2852-3.2812 5.1289-7.7305 5.1289-12.375-0.007813-4.6367-1.8516-9.0859-5.1328-12.367-3.2812-3.2773-7.7305-5.125-12.367-5.1328z" />
        <path
            d="m406.86 210.02c-1.082 0.015625-2.1602-0.035156-3.2305-0.15234-2.3125-0.26953-4.418-1.4492-5.8594-3.2734-1.4375-1.8281-2.0938-4.1523-1.8164-6.4609s1.4609-4.4141 3.293-5.8477c1.832-1.4336 4.1602-2.082 6.4688-1.7969 0.37891 0.042969 0.76172 0.054687 1.1445 0.03125 6.5273 0 12.062-4.7969 12.988-11.254 0.92969-6.4609-3.0273-12.625-9.2891-14.465-2.2305-0.64453-4.1133-2.1445-5.2344-4.1797-1.1211-2.0312-1.3906-4.4258-0.74609-6.6562 1.3398-4.6406 6.1914-7.3203 10.832-5.9805 9.5234 2.7695 17.113 9.9766 20.371 19.344 3.2578 9.3633 1.7812 19.727-3.9609 27.809-5.7461 8.082-15.047 12.883-24.961 12.883z" />
        <path
            d="m511.68 157.52c-8.1211-0.007813-15.906-3.2383-21.645-8.9805-5.7422-5.7383-8.9727-13.523-8.9805-21.645 0.011718-2.0117 0.21094-4.0195 0.59766-5.9961 0.42578-2.2852 1.7422-4.3047 3.6602-5.6172 1.918-1.3086 4.2773-1.8047 6.5625-1.375 2.2812 0.43359 4.3008 1.7539 5.6094 3.6758 1.3047 1.918 1.7969 4.2812 1.3594 6.5625-0.17969 0.90625-0.27734 1.8281-0.28906 2.75 0 7.25 5.875 13.125 13.125 13.125 7.2461 0 13.125-5.875 13.125-13.125-0.011719-0.92188-0.10547-1.8438-0.28516-2.75-0.42969-2.2812 0.0625-4.6367 1.3711-6.5547 1.3086-1.9141 3.3242-3.2344 5.6055-3.6641 4.7461-0.89844 9.3203 2.2227 10.219 6.9727 0.38281 1.9766 0.58203 3.9844 0.58984 5.9961-0.011719 8.1211-3.2422 15.906-8.9805 21.645-5.7422 5.7422-13.527 8.9727-21.645 8.9805z" />
        <path
            d="m498.9 315.02c-4.832 0.027344-8.7695-3.8711-8.793-8.707-0.023437-4.832 3.875-8.7656 8.707-8.793h0.085938c4.832 0 8.75 3.918 8.75 8.75 0 4.8359-3.918 8.75-8.75 8.75z" />
        <path
            d="m437.65 253.77c-4.832 0.027344-8.7695-3.8711-8.793-8.707-0.023437-4.832 3.875-8.7656 8.707-8.793h0.085938c4.832 0 8.75 3.918 8.75 8.75 0 4.8359-3.918 8.75-8.75 8.75z" />
        <path
            d="m568.9 446.27c-4.832 0.027344-8.7695-3.8711-8.793-8.707-0.023437-4.832 3.875-8.7656 8.707-8.793h0.085938c4.832 0 8.75 3.918 8.75 8.75 0 4.8359-3.918 8.75-8.75 8.75z" />
        <path
            d="m481.4 437.52c-4.832 0.027344-8.7695-3.8711-8.793-8.707-0.023437-4.832 3.875-8.7656 8.707-8.793h0.085938c4.832 0 8.75 3.918 8.75 8.75 0 4.8359-3.918 8.75-8.75 8.75z" />
        <path
            d="m463.9 175.02c-4.832 0.027344-8.7695-3.8711-8.793-8.707-0.023437-4.832 3.875-8.7656 8.707-8.793h0.085938c4.832 0 8.75 3.918 8.75 8.75 0 4.8359-3.918 8.75-8.75 8.75z" />
        <path
            d="m271.25 490.01c-2.3203 0.003907-4.5469-0.91797-6.1875-2.5586-1.6406-1.6445-2.5625-3.8711-2.5625-6.1914v-26.695c0-4.832 3.918-8.75 8.75-8.75s8.75 3.918 8.75 8.75v26.695c0 2.3203-0.92188 4.5469-2.5625 6.1914-1.6406 1.6406-3.8672 2.5625-6.1875 2.5586z" />
        <path
            d="m393.75 490.01c-2.3203 0.003907-4.5469-0.91797-6.1875-2.5586-1.6406-1.6445-2.5625-3.8711-2.5625-6.1914v-71.676l-105-22.496v24.609c0 4.832-3.918 8.75-8.75 8.75s-8.75-3.918-8.75-8.75v-35.438c0-2.6406 1.1953-5.1406 3.2461-6.8008 2.0508-1.6758 4.7539-2.3203 7.3398-1.75l122.5 26.25c4.0352 0.86328 6.918 4.4258 6.9141 8.5508v78.75c0 2.3203-0.92188 4.5469-2.5625 6.1914-1.6406 1.6406-3.8672 2.5625-6.1875 2.5586z" />
        <path
            d="m275.62 463.76c-2.0156-0.007812-4.0273-0.21094-6.0078-0.59766-4.7148-0.93359-7.793-5.4922-6.8984-10.215 0.89844-4.7227 5.4336-7.8359 10.164-6.9766 0.90234 0.17969 1.8203 0.27734 2.7422 0.28906 7.25 0 13.125-5.875 13.125-13.125 0-7.2461-5.875-13.125-13.125-13.125-0.92188 0.011719-1.8398 0.10547-2.7422 0.28125-4.7266 0.85938-9.2617-2.2578-10.156-6.9766-0.89844-4.7188 2.1797-9.2773 6.8906-10.215 1.9805-0.38281 3.9922-0.58203 6.0078-0.58984 10.941 0 21.051 5.8398 26.523 15.312 5.4688 9.4766 5.4688 21.152 0 30.625-5.4727 9.4766-15.582 15.312-26.523 15.312z" />
        <path
            d="m350.19 472.51c-6.9492-0.050781-13.598-2.8555-18.48-7.8047-4.8828-4.9453-7.6094-11.625-7.5742-18.574 0.035157-6.9531 2.8242-13.605 7.7578-18.5 4.9336-4.8984 11.609-7.6367 18.559-7.6211 6.9492 0.019532 13.609 2.7891 18.52 7.7109s7.6641 11.59 7.6641 18.539c-0.03125 6.9883-2.8359 13.676-7.793 18.594-4.957 4.9219-11.664 7.6758-18.652 7.6562zm0-35c-3.5195 0.078126-6.6523 2.2617-7.9453 5.5352-1.293 3.2773-0.49609 7.0117 2.0195 9.4727 2.5195 2.4648 6.2695 3.1758 9.5156 1.8086 3.2461-1.3633 5.3555-4.543 5.3555-8.0664-0.054687-4.8867-4.0586-8.8008-8.9453-8.75z" />
        <path
            d="m332.5 398.13c-2.3203 0.003907-4.5469-0.91797-6.1875-2.5586-1.6406-1.6445-2.5625-3.8711-2.5625-6.1914v-65.625c0-4.832 3.918-8.75 8.75-8.75s8.75 3.918 8.75 8.75v65.625c0 2.3203-0.92188 4.5469-2.5625 6.1914-1.6406 1.6406-3.8672 2.5625-6.1875 2.5586z" />
        <path
            d="m428.73 402.59c-9.2852 0-18.188-3.6875-24.75-10.25-6.5625-6.5664-10.25-15.469-10.25-24.75s3.6875-18.184 10.25-24.75c6.5625-6.5625 15.465-10.25 24.75-10.25 9.2812 0 18.184 3.6875 24.746 10.25 6.5664 6.5664 10.254 15.469 10.254 24.75-0.011719 9.2812-3.6992 18.176-10.262 24.738s-15.461 10.254-24.738 10.262zm0-52.5c-4.6445 0-9.0938 1.8438-12.375 5.125s-5.125 7.7344-5.125 12.375 1.8438 9.0938 5.125 12.375 7.7305 5.125 12.375 5.125c4.6406 0 9.0898-1.8438 12.371-5.125 3.2852-3.2812 5.1289-7.7344 5.1289-12.375-0.007813-4.6406-1.8516-9.0859-5.1328-12.367s-7.7305-5.125-12.367-5.1328z" />
    </g>
</svg>